<?xml version="1.0" encoding="UTF-8"?>
<svg xmlns="http://www.w3.org/2000/svg" viewBox="0 0 150 120"
  xmlns:xlink="http://www.w3.org/1999/xlink" width="150" height="150">
  <g id="SvgjsG1012" featurekey="monogramFeature-0"
    transform="matrix(1.5,0,0,1.5,50,-40)"
    fill="#f76b8a">
    <path
      d="M10.2 60.54 c-1.44 -0.6 -2.88 -2.94 -2.88 -5.52 c0 -3.18 1.14 -10.32 6.96 -18.78 c5.46 -7.98 12 -14.04 18.84 -14.04 c9.06 0 3.54 18.66 -2.34 33.54 c1.62 -0.24 2.82 -0.54 3.6 -1.02 c1.02 -0.6 1.2 0.12 0.48 0.66 c-0.96 0.72 -2.4 1.26 -4.62 1.68 l-0.42 1.08 c-5.82 14.28 -16.86 36.72 -28.2 36.72 c-9 0 -14.94 -11.88 -1.62 -24.78 c8.88 -8.58 23.04 -12.96 29.1 -14.04 c9.54 -22.32 8.88 -32.4 3.84 -32.4 c-4.86 0 -12.78 7.02 -17.04 13.32 c-4.86 7.2 -7.5 14.7 -7.5 18.24 c0 2.76 1.5 4.02 2.46 4.56 c0.96 0.66 0.24 1.2 -0.66 0.78 z M1.44 93.78 c7.92 0 16.92 -13.26 27.06 -36.42 c-7.56 1.44 -19.2 5.64 -27.48 13.62 c-11.04 10.74 -6.54 22.8 0.42 22.8 z"></path>
  </g>
</svg>